<?xml version="1.0" encoding="utf-8"?>
<!-- Generator: Adobe Illustrator 14.0.0, SVG Export Plug-In . SVG Version: 6.00 Build 43363)  -->
<!DOCTYPE svg PUBLIC "-//W3C//DTD SVG 1.1//EN" "http://www.w3.org/Graphics/SVG/1.1/DTD/svg11.dtd">
<svg version="1.1" id="Layer_1" xmlns="http://www.w3.org/2000/svg" xmlns:xlink="http://www.w3.org/1999/xlink" x="0px" y="0px"
	 width="20px" height="20px" viewBox="0 0 20 20" enable-background="new 0 0 20 20" xml:space="preserve">
<g>
	<path fill="#FFFFFF" d="M12.473,10.318c0.071-0.089,0.115-0.202,0.115-0.325c0-0.124-0.044-0.235-0.115-0.325L5.187,0.523l0,0
		C4.951,0.202,4.544,0,4.109,0C3.746-0.001,3.424,0.138,3.194,0.368S2.825,0.92,2.825,1.284c0,0.317,0.088,0.583,0.262,0.815
		L3.088,2.1L9.45,10l-6.418,7.957v0.001c-0.175,0.233-0.263,0.524-0.263,0.813C2.77,19.445,3.323,20,3.997,20
		c0.437,0.001,0.763-0.206,1.02-0.521l0.001-0.002L12.473,10.318z"/>
	<path fill="#FFFFFF" d="M13.702,11.209l-1.646,2.038l2.868,3.563c0.226,0.311,0.591,0.508,0.984,0.508
		c0.87,0,1.293-0.646,1.293-1.295c0-0.226-0.084-0.562-0.31-0.814L13.702,11.209z"/>
	<path fill="#FFFFFF" d="M16.95,4.693c0.169-0.225,0.28-0.505,0.28-0.787c0-0.675-0.533-1.209-1.293-1.209
		c-0.395,0-0.76,0.169-0.983,0.479l-2.858,3.549l1.631,2.032L16.95,4.693z"/>
</g>
</svg>
