<?xml version="1.0" encoding="utf-8"?>
<!-- Generator: Adobe Illustrator 15.0.0, SVG Export Plug-In . SVG Version: 6.00 Build 0)  -->
<!DOCTYPE svg PUBLIC "-//W3C//DTD SVG 1.1//EN" "http://www.w3.org/Graphics/SVG/1.1/DTD/svg11.dtd">
<svg version="1.1" id="Layer_1" xmlns="http://www.w3.org/2000/svg" xmlns:xlink="http://www.w3.org/1999/xlink" x="0px" y="0px"
	 width="140px" height="27.287px" viewBox="0 0 140 27.287" enable-background="new 0 0 140 27.287" xml:space="preserve">
<g>
	<g>
		<g>
			<path fill="#FFFFFF" d="M12.827,11.562v7.989c0,0.702-0.591,1.266-1.294,1.266c-0.703,0-1.266-0.562-1.266-1.266v-7.708
				c0-2.138-0.9-3.432-3.094-3.432c-2.025,0-3.488,1.294-4.614,2.701v8.439c0,0.702-0.59,1.266-1.294,1.266
				C0.562,20.816,0,20.253,0,19.551V7.482c0-0.73,0.562-1.293,1.266-1.293S2.56,6.752,2.56,7.482v1.154
				c1.182-1.294,2.729-2.588,5.232-2.588C10.999,6.048,12.827,8.551,12.827,11.562z"/>
			<path fill="#FFFFFF" d="M28.186,18.678c0,0.451-0.338,0.815-0.731,1.041c-1.238,0.704-2.476,1.238-4.923,1.238
				c-4.585,0-7.286-2.729-7.286-7.456c0-3.797,2.053-7.455,6.723-7.455c4.332,0,6.695,3.348,6.695,7.089
				c0,0.704-0.506,1.265-1.294,1.265h-9.536c0.281,2.532,1.885,4.163,4.923,4.163c1.688,0,2.757-0.336,3.797-0.871
				c0.168-0.085,0.31-0.113,0.506-0.113C27.651,17.581,28.186,18.031,28.186,18.678z M17.833,12.321h8.298
				c-0.169-2.926-2.363-4.107-4.164-4.107C20.168,8.214,18.002,9.396,17.833,12.321z"/>
			<path fill="#FFFFFF" d="M53.519,19.466c0,0.479-0.253,0.787-0.646,0.984c-0.675,0.311-1.435,0.507-2.335,0.507
				c-1.322,0-4.107-0.226-4.107-3.714v-8.72h-1.997c-0.309,0-0.534-0.225-0.534-0.535c0-0.168,0.084-0.337,0.253-0.478l3.826-3.742
				c0.085-0.084,0.253-0.253,0.479-0.253c0.309,0,0.534,0.253,0.534,0.563v2.25h3.179c0.619,0,1.097,0.478,1.097,1.097
				c0,0.619-0.478,1.097-1.097,1.097H48.99v8.496c0,1.659,1.125,1.688,1.829,1.688c0.9,0,1.209-0.254,1.688-0.254
				C53.013,18.453,53.519,18.875,53.519,19.466z"/>
			<path fill="#FFFFFF" d="M66.908,18.622c0,0.422-0.226,0.761-0.563,0.985c-0.956,0.619-2.363,1.351-4.585,1.351
				c-3.994,0-7.511-2.758-7.511-7.456s3.517-7.455,7.511-7.455c2.222,0,3.629,0.731,4.585,1.351
				c0.337,0.225,0.563,0.563,0.563,0.984c0,0.535-0.479,1.126-1.069,1.126c-0.226,0-0.366-0.029-0.619-0.169
				c-0.985-0.506-1.772-0.9-3.235-0.9c-3.263,0-5.176,2.054-5.176,5.063c0,3.009,1.913,5.063,5.176,5.063
				c1.462,0,2.25-0.394,3.235-0.898c0.253-0.142,0.394-0.17,0.619-0.17C66.429,17.497,66.908,18.088,66.908,18.622z"/>
			<path fill="#FFFFFF" d="M80.689,11.589v7.961c0,0.702-0.591,1.266-1.293,1.266c-0.703,0-1.267-0.562-1.267-1.266v-0.732
				c-1.014,1.041-2.645,2.138-5.289,2.138c-2.447,0-4.585-1.574-4.585-4.219s2.082-4.558,6.47-4.558h3.404v-0.225
				c0-2.504-1.238-3.488-3.77-3.488c-1.576,0-2.701,0.336-3.741,0.675c-0.113,0.028-0.253,0.055-0.366,0.055
				c-0.562,0-1.041-0.449-1.041-1.069c0-0.478,0.253-0.872,0.732-1.069c1.322-0.562,2.87-1.013,4.866-1.013
				C78.918,6.048,80.689,8.833,80.689,11.589z M78.131,16.597v-2.363h-3.065c-2.646,0-4.248,0.619-4.248,2.222
				c0,1.211,0.702,2.25,2.981,2.25C75.543,18.708,77.174,17.694,78.131,16.597z"/>
			<path fill="#FFFFFF" d="M86.175,18.819v7.173c0,0.731-0.562,1.294-1.294,1.294c-0.703,0-1.266-0.562-1.266-1.294V7.455
				c0-0.703,0.562-1.266,1.266-1.266c0.73,0,1.294,0.563,1.294,1.266v0.731c1.294-1.351,2.841-2.138,4.811-2.138
				c3.403,0,6.809,2.673,6.809,7.455s-3.404,7.456-6.809,7.456C89.016,20.958,87.469,20.169,86.175,18.819z M86.175,10.548v5.908
				c1.098,1.211,2.616,2.109,4.444,2.109c2.673,0,4.613-1.744,4.613-5.063s-1.94-5.063-4.613-5.063
				C88.791,8.439,87.271,9.339,86.175,10.548z"/>
			<path fill="#FFFFFF" d="M102.883,1.97c0,0.788-0.646,1.434-1.436,1.434c-0.027,0-0.057,0-0.168,0
				c-0.788,0-1.436-0.646-1.436-1.434c0-0.029,0-0.029,0-0.113c0-0.788,0.646-1.435,1.436-1.435c0.057,0,0.111,0,0.168,0
				c0.788,0,1.436,0.647,1.436,1.435C102.883,1.884,102.883,1.941,102.883,1.97z M102.629,7.482V19.55
				c0,0.702-0.562,1.266-1.293,1.266c-0.704,0-1.267-0.562-1.267-1.266V7.482c0-0.73,0.562-1.293,1.267-1.293
				C102.066,6.189,102.629,6.752,102.629,7.482z"/>
			<path fill="#FFFFFF" d="M114.077,19.466c0,0.479-0.253,0.787-0.647,0.984c-0.675,0.311-1.434,0.507-2.334,0.507
				c-1.321,0-4.105-0.226-4.105-3.714v-8.72h-1.997c-0.312,0-0.535-0.225-0.535-0.535c0-0.168,0.084-0.337,0.254-0.478l3.824-3.742
				c0.085-0.084,0.254-0.253,0.479-0.253c0.311,0,0.535,0.253,0.535,0.563v2.25h3.179c0.618,0,1.098,0.478,1.098,1.097
				c0,0.619-0.479,1.097-1.098,1.097h-3.179v8.496c0,1.659,1.125,1.688,1.828,1.688c0.9,0,1.21-0.254,1.688-0.254
				C113.57,18.453,114.077,18.875,114.077,19.466z"/>
			<path fill="#FFFFFF" d="M127.297,11.589v7.961c0,0.702-0.59,1.266-1.293,1.266s-1.266-0.562-1.266-1.266v-0.732
				c-1.015,1.041-2.646,2.138-5.289,2.138c-2.447,0-4.585-1.574-4.585-4.219s2.081-4.558,6.47-4.558h3.404v-0.225
				c0-2.504-1.238-3.488-3.771-3.488c-1.575,0-2.701,0.336-3.741,0.675c-0.111,0.028-0.253,0.055-0.364,0.055
				c-0.563,0-1.041-0.449-1.041-1.069c0-0.478,0.253-0.872,0.73-1.069c1.321-0.562,2.869-1.013,4.866-1.013
				C125.525,6.048,127.297,8.833,127.297,11.589z M124.738,16.597v-2.363h-3.066c-2.644,0-4.248,0.619-4.248,2.222
				c0,1.211,0.703,2.25,2.982,2.25C122.15,18.708,123.781,17.694,124.738,16.597z"/>
			<path fill="#FFFFFF" d="M133.007,1.294V19.55c0,0.702-0.562,1.266-1.294,1.266c-0.703,0-1.266-0.562-1.266-1.266V1.294
				c0-0.732,0.562-1.294,1.266-1.294C132.443,0,133.007,0.562,133.007,1.294z"/>
		</g>
		<g>
			<path fill="#FFFFFF" d="M38.168,13.484c0-0.124-0.044-0.235-0.115-0.325l-7.289-9.147l0,0c-0.235-0.322-0.642-0.524-1.077-0.524
				c-0.364,0-0.686,0.138-0.916,0.369c-0.23,0.229-0.369,0.552-0.369,0.916c0,0.318,0.088,0.583,0.263,0.815v0.001l6.365,7.903
				l-6.421,7.958v0.001c-0.176,0.234-0.263,0.525-0.263,0.815c0.001,0.673,0.555,1.228,1.228,1.228
				c0.438,0.001,0.764-0.207,1.021-0.521v-0.001l7.457-9.162C38.124,13.719,38.168,13.607,38.168,13.484z"/>
			<path fill="#FFFFFF" d="M39.282,14.701l-1.645,2.039l2.869,3.566c0.225,0.31,0.591,0.506,0.984,0.506
				c0.872,0,1.294-0.646,1.294-1.294c0-0.226-0.084-0.562-0.31-0.816L39.282,14.701z"/>
			<path fill="#FFFFFF" d="M42.532,8.183c0.168-0.225,0.281-0.506,0.281-0.788c0-0.675-0.534-1.21-1.294-1.21
				c-0.394,0-0.759,0.169-0.984,0.479l-2.859,3.55l1.63,2.033L42.532,8.183z"/>
		</g>
	</g>
	<g>
		<path fill="#FFFFFF" d="M135.921,19.237v-0.323h1.651v0.323h-0.633v1.615h-0.386v-1.615H135.921z M138.455,18.914l0.496,1.388
			l0.498-1.388H140v1.938h-0.355v-1.564l-0.535,1.564h-0.311l-0.541-1.564v1.564h-0.354v-1.938H138.455z"/>
	</g>
</g>
</svg>
